# xmcd CD database file
#
# Track frame offsets:
#	187
#	19307
#	34210
#	46127
#	61307
#	73325
#	85617
#
# Disc length: 1343 seconds
#
# Revision: 1
# Processed by: cddbd v1.5.2PL0 Copyright (c) Steve Scherf et al.
# Submitted via: CDex 1.70beta3
#
DISCID=59053d07
DTITLE=Lee Konitz - Lee Konitz Plays
DYEAR=1953
DGENRE=Jazz
TTITLE0=I'll Remember April
TTITLE1=Record Shop Suey
TTITLE2=Lee Tchee
TTITLE3=Young Lee
TTITLE4=You'd Be So Nice
TTITLE5=4 PM
TTITLE6=Lost Henri
EXTD=YEAR: 1953
EXTT0=
EXTT1=
EXTT2=
EXTT3=
EXTT4=
EXTT5=
EXTT6=
PLAYORDER=
